# xmcd CD database file
#
# Track frame offsets:
#	150
#	20815
#	45473
#	76284
#	109522
#	132043
#	161152
#	186387
#	217245
#	245329
#	271924
#	298898
#
# Disc length: 4424 seconds
#
# Revision: 0
# Processed by: cddbd v1.4PL0 Copyright (c) Steve Scherf et al.
# Submitted via: CDex 1.50beta9
#
DISCID=b111460c
DTITLE=Terell Stafford - Fields of Gold
DYEAR=2002
DGENRE=Jazz
TTITLE0=Hey it's me you're talking to
TTITLE1=Minnesota
TTITLE2=Dear Rudy
TTITLE3=Ms. Shirley Scott
TTITLE4=Ill Wind
TTITLE5=If I perish
TTITLE6=Sagittarius
TTITLE7=I believe in you
TTITLE8=His eye is on the sparrow
TTITLE9=Flashdance
TTITLE10=That's all
TTITLE11=September in the rain
EXTD=YEAR: 2002
EXTT0=
EXTT1=
EXTT2=
EXTT3=
EXTT4=
EXTT5=
EXTT6=
EXTT7=
EXTT8=
EXTT9=
EXTT10=
EXTT11=
PLAYORDER=
